<svg version="1.1" id="icon-search-glass-01" width="37px" height="50px" xmlns="http://www.w3.org/2000/svg" xmlns:xlink="http://www.w3.org/1999/xlink" x="0px" y="0px"
	 viewBox="0 0 37 37" style="enable-background:new 0 0 37 37;" xml:space="preserve">
<style type="text/css">
	.icon-search-glass-0{fill:#282829;}
</style>
<path class="icon-search-glass-0" d="M26.1,23.4l10.4,10.4l-3.1,3.1L23,26.6v-1.7l-0.6-0.6c-2.5,2.1-5.5,3.2-8.8,3.2c-3.8,0-7-1.3-9.6-4
	s-4-5.8-4-9.6c0-3.7,1.3-6.9,4-9.6s5.8-4,9.6-4c3.7,0,6.9,1.3,9.6,4s4,5.8,4,9.6c0,3.3-1.1,6.2-3.2,8.8l0.6,0.6H26.1z M7,20.7
	c1.8,1.8,4,2.7,6.6,2.7c2.6,0,4.8-0.9,6.6-2.7c1.8-1.8,2.7-4,2.7-6.6c0-2.6-0.9-4.8-2.7-6.6c-1.8-1.8-4-2.7-6.6-2.7
	C11,4.7,8.8,5.6,7,7.4c-1.8,1.8-2.7,4-2.7,6.6C4.3,16.7,5.2,18.9,7,20.7z"/>
</svg>
