<svg version="1.1" id="icon-eye-01" width="28px" height="20px" xmlns="http://www.w3.org/2000/svg" xmlns:xlink="http://www.w3.org/1999/xlink" x="0px" y="0px"
	 viewBox="0 0 30 22" style="enable-background:new 0 0 30 22;" xml:space="preserve">
<style type="text/css">
	.icon-eye-1{fill:none;stroke:#FFFFFF;}
</style>
<path class="icon-eye-1" d="M1,10.4c0,0,1.1-0.5,3.2-1.5V5.5l3.5-0.1V2.9L11,3.2L12.7,1l2.4,1.5L18,1.2L19.3,4l4-0.2l-0.7,2.5
	L26.4,6l-0.8,3.3l3.4,0.8l-1.5,3.2l-4.7,0.9l-0.5,4.2l-2.5-1.2L18,20l-6.5-2l1,2l-3.3-2l0.4-2l-4.8,0.2l0.5-4.1l-2.5-0.1
	C1.6,10.9,1,10.4,1,10.4z"/>
<polygon class="icon-eye-1" points="2,9.5 6.7,8.2 5.2,4.6 9.5,5.1 10.2,2.4 13.4,2.6 15.2,1 17,3.8 19.9,1.9 21.9,3.4 
	21.5,6.1 25.8,4.8 23.7,8.2 28.3,7.8 28.3,9.7 29,11.3 24.5,12.8 26,16.1 22.3,16.1 21.7,19 18.8,17.6 17.6,19.9 14.5,18 11.3,20 
	10.5,17.2 7.7,18.4 8.1,15.3 5.4,16.7 6.6,13.4 3,13.6 5.2,10.8 "/>
<polygon class="icon-eye-1" points="4.1,6.8 7.4,7 9.2,3.2 12.2,4.8 12.6,2 16,3.7 20,3.2 22,3.3 22.3,5.4 25.6,5.9 25.2,8.2 
	28,8.8 26.4,15 24.1,15 23.8,17.5 20.3,19.1 17.1,17.7 15,20 10.2,19.1 8.8,17.1 6.7,17.1 5.1,13.3 4.2,14.6 2,11.7 2.7,9 4.2,8 "/>
<polygon class="icon-eye-1" points="12.1,8.3 16.9,7 18.2,8.8 19,12.3 16.2,15 12.3,14.1 11,11 "/>
<polygon class="icon-eye-1" points="11,12.8 11.4,9 14.2,6 17.4,7.7 19,10 17.8,13.9 13.6,15 12.9,13.1 "/>
<polygon class="icon-eye-1" points="11,8.8 14.2,7 16.5,7.3 17.2,8.6 19,8.8 18.1,10.6 18.8,13.1 16.3,13.8 15.3,15 14.2,13.6 
	12,14.3 12,11.8 11,11.5 12,10.4 "/>
</svg>
